<?xml version="1.0" encoding="utf-8"?>
<!-- Generator: Adobe Illustrator 19.0.1, SVG Export Plug-In . SVG Version: 6.00 Build 0)  -->
<svg version="1.1" id="Layer_1" xmlns="http://www.w3.org/2000/svg" xmlns:xlink="http://www.w3.org/1999/xlink" x="0px" y="0px"
	 viewBox="0 0 453.5 453.5" enable-background="new 0 0 453.5 453.5" xml:space="preserve">
<path fill="#808184" d="M85.1,227.6c-65.3,18-66.9,147.5-66.9,147.5S1.9,250.4,71,208.9c90.4-54.3,217.6,47.3,300.2,18"/>
<path fill="#808184" d="M138.3,362.4c-7.9-49.4-7.6-93-0.7-131.5c7.4-38.2,21.7-71,42.7-98.2c10.4-13.7,22.5-26,36.1-37.1
	c13.7-10.9,29.7-19.9,48-26.7c9.3-3.3,18.9-6.3,29-8.8c10.3-2.3,20.8-4.5,32.1-5.8c22.4-2.9,46.9-3.9,74-2.1l2,2
	c-21.2,4-41.8,8.5-61.1,14.2c-9.5,2.9-19.1,5.9-28,9.4c-9.1,3.4-17.9,7-26.2,11c-16.9,7.9-32.8,16.6-47.7,26.2
	c-15.1,9.5-28.4,20.5-40,33c-23.1,25.1-39.6,55.8-49.3,91.9c-10,35.8-12.8,77.4-8.7,124.1L138.3,362.4z"/>
<path fill="#1B75BB" d="M47.2,405.5c0,0-29.8-133.9,27.3-186.4c74.6-68.6,211.9,32.7,282.9-8.1c64.7-37.2,43.3-160,43.3-160
	s57.5,153.3-1.7,192.2c-77.7,51.2-192.4-43.9-297.1,5.1C45.1,274.9,47.2,405.5,47.2,405.5z"/>
<g>
</g>
<g>
</g>
<g>
</g>
<g>
</g>
<g>
</g>
<g>
</g>
</svg>
