<?xml version="1.0" encoding="utf-8"?>
<!-- Generator: Adobe Illustrator 19.0.1, SVG Export Plug-In . SVG Version: 6.00 Build 0)  -->
<svg version="1.1" baseProfile="tiny" id="Calque_1"
	 xmlns="http://www.w3.org/2000/svg" xmlns:xlink="http://www.w3.org/1999/xlink" x="0px" y="0px" viewBox="-62 104.3 328 46.8"
	 xml:space="preserve">
<g>
	<path fill="#FFFFFF" d="M124.8,112.4c-23.3-4.3-65.1,5-65.1,5s35.5-10.6,67.3-7.6c41.6,3.9,43.4,22.3,75,27.3"/>
</g>
<rect x="153.6" y="130.7" fill="none" width="16.3" height="15.9"/>
<g>
	<path fill="#FFFFFF" d="M159.1,133.5c0,1.4-1.1,2.4-2.4,2.4c-1.4,0-2.5-1.1-2.5-2.4c0-1.3,1.1-2.4,2.5-2.4
		C158,131.1,159.1,132.2,159.1,133.5z M154.8,133.5c0,1.1,0.8,1.9,1.9,1.9c1,0,1.8-0.8,1.8-1.9c0-1.1-0.8-1.9-1.8-1.9
		C155.5,131.6,154.8,132.4,154.8,133.5z M156.2,134.7h-0.6v-2.4c0.2,0,0.5-0.1,0.9-0.1c0.5,0,0.7,0.1,0.8,0.2
		c0.1,0.1,0.2,0.3,0.2,0.5c0,0.3-0.2,0.5-0.5,0.6v0c0.2,0.1,0.4,0.3,0.4,0.6c0.1,0.4,0.1,0.5,0.2,0.6h-0.6c-0.1-0.1-0.1-0.3-0.2-0.6
		c0-0.3-0.2-0.4-0.5-0.4h-0.3V134.7z M156.2,133.4h0.3c0.3,0,0.6-0.1,0.6-0.3c0-0.2-0.2-0.4-0.5-0.4c-0.1,0-0.2,0-0.3,0V133.4z"/>
</g>
<rect x="29.5" y="130.7" fill="none" width="147.4" height="19.5"/>
<g>
	<path fill="#FFFFFF" d="M57.6,144.3c0.9,0.5,2.2,1,3.5,1c2,0,3.2-1.1,3.2-2.6c0-1.4-0.8-2.2-2.9-3c-2.5-0.9-4-2.2-4-4.3
		c0-2.4,2-4.1,4.9-4.1c1.6,0,2.7,0.4,3.4,0.7l-0.5,1.6c-0.5-0.3-1.5-0.7-2.9-0.7c-2.1,0-2.9,1.2-2.9,2.3c0,1.4,0.9,2.1,3,2.9
		c2.6,1,3.9,2.2,3.9,4.5c0,2.3-1.7,4.4-5.3,4.4c-1.5,0-3.1-0.4-3.9-1L57.6,144.3z"/>
	<path fill="#FFFFFF" d="M71.9,133.2h-4.6v-1.7h11.2v1.7h-4.6v13.5h-2V133.2z"/>
	<path fill="#FFFFFF" d="M88.1,139.6h-5.9v5.5h6.6v1.6h-8.5v-15.2h8.2v1.6h-6.2v4.8h5.9V139.6z"/>
	<path fill="#FFFFFF" d="M91.3,131.7c1-0.2,2.4-0.3,3.8-0.3c2.1,0,3.4,0.4,4.4,1.2c0.8,0.7,1.2,1.7,1.2,2.9c0,2-1.3,3.3-2.9,3.9v0.1
		c1.2,0.4,1.9,1.5,2.2,3.1c0.5,2.1,0.9,3.6,1.2,4.2h-2c-0.2-0.4-0.6-1.7-1-3.6c-0.5-2.1-1.3-2.9-3-3h-1.8v6.6h-2V131.7z M93.2,138.7
		h2c2.1,0,3.4-1.1,3.4-2.9c0-2-1.4-2.8-3.5-2.8c-0.9,0-1.6,0.1-1.9,0.2V138.7z"/>
	<path fill="#FFFFFF" d="M103.4,131.7c0.9-0.2,2.2-0.3,3.6-0.3c2,0,3.2,0.3,4.2,1.1c0.8,0.6,1.3,1.5,1.3,2.7c0,1.5-1,2.7-2.6,3.3v0
		c1.4,0.4,3.1,1.6,3.1,3.8c0,1.3-0.5,2.3-1.3,3c-1.1,1-2.8,1.4-5.2,1.4c-1.4,0-2.4-0.1-3-0.2V131.7z M105.4,138h1.8
		c2.1,0,3.3-1.1,3.3-2.5c0-1.8-1.4-2.5-3.3-2.5c-0.9,0-1.4,0.1-1.7,0.1V138z M105.4,145.2c0.4,0.1,0.9,0.1,1.6,0.1
		c2,0,3.9-0.7,3.9-3c0-2.1-1.8-2.9-3.9-2.9h-1.6V145.2z"/>
	<path fill="#FFFFFF" d="M115.6,131.5h2v13.5h6.5v1.6h-8.4V131.5z"/>
	<path fill="#FFFFFF" d="M127.4,131.5v9c0,3.4,1.5,4.8,3.5,4.8c2.3,0,3.7-1.5,3.7-4.8v-9h2v8.9c0,4.7-2.5,6.6-5.7,6.6
		c-3.1,0-5.5-1.8-5.5-6.5v-8.9H127.4z"/>
	<path fill="#FFFFFF" d="M147.9,139.6H142v5.5h6.6v1.6H140v-15.2h8.2v1.6H142v4.8h5.9V139.6z"/>
</g>
<g>
	<path fill="#FFFFFF" d="M57.8,122.1c0,0,34.7-12.3,66.8-11.2c42,1.5,46.5,20.7,78.7,23.9c29.3,2.9,62.7-7.9,62.7-7.9
		s-33.5,16.2-61.8,13.9c-37.2-3-37.7-19.9-81.5-25.4C99,112.4,57.8,122.1,57.8,122.1z"/>
</g>
<path fill="#FFFFFF" d="M103.2,124.8c1.1-0.3,2.4-0.7,3.7-1.1c1.4-0.3,2.9-0.7,4.4-1.1c1.6-0.4,3.3-0.8,5.1-1.3
	c1.8-0.4,3.7-0.8,5.7-1.2c1-0.2,2-0.4,3-0.6c1-0.2,2.1-0.5,3.1-0.6c2.1-0.4,4.4-0.8,6.6-1.2c1.1-0.2,2.3-0.4,3.5-0.6
	c1.2-0.2,2.4-0.3,3.6-0.5c1.2-0.2,2.4-0.3,3.6-0.5c0.6-0.1,1.2-0.2,1.8-0.2c0.6-0.1,1.2-0.2,1.9-0.2c2.5-0.2,5.1-0.5,7.6-0.8
	c0.6-0.1,1.3-0.1,1.9-0.2c0.6-0.1,1.3-0.1,2-0.1c1.3-0.1,2.6-0.2,3.9-0.3c5.3-0.4,10.7-0.5,16-0.6c5.4,0,10.8,0,16.1,0.2
	c1.3,0,2.6,0.1,4,0.1c0.7,0,1.3,0,2,0.1c0.7,0,1.3,0.1,1.9,0.1c2.6,0.2,5.2,0.4,7.7,0.6c0.6,0,1.3,0.1,1.9,0.2s1.2,0.2,1.9,0.2
	c1.2,0.2,2.4,0.3,3.7,0.5c1.2,0.2,2.4,0.3,3.6,0.5c1.2,0.2,2.3,0.4,3.5,0.6c2.3,0.4,4.5,0.8,6.6,1.2c1.1,0.2,2.1,0.4,3.1,0.7
	c1,0.2,2,0.5,3,0.7c2,0.4,3.9,0.9,5.6,1.3c1.8,0.5,3.5,0.9,5,1.4c1.6,0.4,3.1,0.9,4.4,1.2c1.4,0.4,2.6,0.8,3.7,1.2
	c2.2,0.7,4,1.3,5.2,1.7c1.2,0.4,1.8,0.6,1.8,0.6l-0.1,0.3c0,0-0.7-0.1-1.9-0.4c-1.2-0.3-3-0.6-5.3-1.1c-1.1-0.2-2.4-0.6-3.8-0.8
	c-1.4-0.3-2.9-0.5-4.5-0.9c-1.6-0.3-3.3-0.6-5.1-1c-1.8-0.3-3.7-0.6-5.7-0.9c-1-0.2-2-0.3-3-0.5c-1-0.2-2.1-0.4-3.1-0.5
	c-2.1-0.3-4.3-0.6-6.6-0.9c-1.1-0.2-2.3-0.3-3.4-0.5c-1.2-0.1-2.3-0.3-3.5-0.4c-2.4-0.2-4.8-0.6-7.3-0.8c-2.5-0.2-5-0.5-7.6-0.7
	c-0.6-0.1-1.3-0.1-1.9-0.2c-0.6-0.1-1.3-0.1-1.9-0.1c-1.3-0.1-2.6-0.2-3.9-0.3c-5.2-0.4-10.6-0.5-15.9-0.7c-5.3,0.1-10.7,0-15.9,0.3
	c-1.3,0.1-2.6,0.1-3.9,0.2c-0.7,0-1.3,0-1.9,0.1c-0.6,0-1.3,0.1-1.9,0.1c-2.6,0.2-5.1,0.4-7.6,0.6c-0.6,0-1.2,0.1-1.9,0.2
	c-0.6,0.1-1.2,0.1-1.8,0.2c-1.2,0.1-2.4,0.3-3.6,0.4c-1.2,0.1-2.4,0.3-3.6,0.4c-1.2,0.1-2.3,0.3-3.5,0.5c-2.3,0.3-4.5,0.6-6.6,0.9
	c-1.1,0.1-2.1,0.3-3.1,0.5c-1,0.2-2,0.4-3,0.5c-2,0.4-3.9,0.7-5.7,1c-1.8,0.4-3.5,0.8-5.1,1.1c-1.6,0.3-3.1,0.7-4.5,1
	c-1.4,0.3-2.6,0.7-3.8,0.9c-4.5,1.2-7.1,1.8-7.1,1.8"/>
</svg>
