<?xml version="1.0" encoding="UTF-8" standalone="no"?>
<!-- Created with Inkscape (http://www.inkscape.org/) -->

<svg
   xmlns:dc="http://purl.org/dc/elements/1.1/"
   xmlns:cc="http://creativecommons.org/ns#"
   xmlns:rdf="http://www.w3.org/1999/02/22-rdf-syntax-ns#"
   xmlns:svg="http://www.w3.org/2000/svg"
   xmlns="http://www.w3.org/2000/svg"
   version="1.1"
   width="93.261124"
   height="76.998749"
   id="svg3373">
  <defs
     id="defs3375">
    <clipPath
       id="clipPath3218">
      <path
         d="m 197.356,34.309 80.788,0 0,67.805 -80.788,0 0,-67.805 z"
         id="path3220" />
    </clipPath>
  </defs>
  <metadata
     id="metadata3378">
    <rdf:RDF>
      <cc:Work
         rdf:about="">
        <dc:format>image/svg+xml</dc:format>
        <dc:type
           rdf:resource="http://purl.org/dc/dcmitype/StillImage" />
        <dc:title></dc:title>
      </cc:Work>
    </rdf:RDF>
  </metadata>
  <g
     transform="translate(-484.79801,-588.14853)"
     id="layer1">
    <g
       transform="matrix(1.25,0,0,-1.25,516.99676,665.05765)"
       id="g3210">
      <path
         d="m 0,0 -3.926,5.979 0,-5.979 -1.289,0 0,8.497 1.181,0 3.927,-5.967 0,5.967 1.288,0 L 1.181,0 0,0 z"
         id="path3212"
         style="fill:#666a6f;fill-opacity:1;fill-rule:nonzero;stroke:none" />
    </g>
    <g
       transform="matrix(1.25,0,0,-1.25,233.35576,713.41665)"
       id="g3214">
      <g
         clip-path="url(#clipPath3218)"
         id="g3216">
        <g
           transform="translate(232.8078,41.3605)"
           id="g3222">
          <path
             d="m 0,0 -1.42,0 c -0.716,0 -1.086,-0.322 -1.086,-0.871 0,-0.549 0.346,-0.859 1.11,-0.859 0.465,0 0.811,0.035 1.133,0.346 C -0.084,-1.205 0,-0.919 0,-0.489 L 0,0 z m 0.024,-2.673 0,0.549 c -0.442,-0.442 -0.859,-0.621 -1.611,-0.621 -0.752,0 -1.254,0.179 -1.624,0.549 -0.31,0.322 -0.477,0.788 -0.477,1.301 0,1.014 0.705,1.742 2.089,1.742 l 1.599,0 0,0.43 c 0,0.764 -0.382,1.134 -1.325,1.134 -0.668,0 -0.99,-0.155 -1.325,-0.585 l -0.799,0.752 c 0.573,0.668 1.169,0.871 2.172,0.871 1.659,0 2.494,-0.704 2.494,-2.076 l 0,-4.046 -1.193,0 z"
             id="path3224"
             style="fill:#666a6f;fill-opacity:1;fill-rule:nonzero;stroke:none" />
        </g>
        <g
           transform="translate(238.9899,38.6872)"
           id="g3226">
          <path
             d="m 0,0 0,3.688 c 0,0.943 -0.537,1.348 -1.218,1.348 -0.68,0 -1.253,-0.417 -1.253,-1.348 l 0,-3.688 -1.217,0 0,6.051 1.193,0 0,-0.609 c 0.418,0.454 1.003,0.68 1.612,0.68 0.62,0 1.133,-0.202 1.491,-0.549 C 1.074,5.12 1.217,4.547 1.217,3.867 L 1.217,0 0,0 z"
             id="path3228"
             style="fill:#666a6f;fill-opacity:1;fill-rule:nonzero;stroke:none" />
        </g>
        <g
           transform="translate(243.2859,38.6872)"
           id="g3230">
          <path
             d="m 0,0 c -1.134,0 -1.659,0.812 -1.659,1.683 l 0,3.33 -0.692,0 0,0.93 0.692,0 0,1.838 1.217,0 0,-1.838 1.17,0 0,-0.93 -1.17,0 0,-3.271 c 0,-0.441 0.216,-0.703 0.669,-0.703 l 0.501,0 L 0.728,0 0,0 z"
             id="path3232"
             style="fill:#666a6f;fill-opacity:1;fill-rule:nonzero;stroke:none" />
        </g>
        <g
           transform="translate(248.3563,43.0312)"
           id="g3234">
          <path
             d="m 0,0 c -0.191,0.454 -0.62,0.764 -1.193,0.764 -0.573,0 -1.015,-0.31 -1.205,-0.764 -0.12,-0.274 -0.144,-0.453 -0.156,-0.823 l 2.721,0 C 0.155,-0.453 0.12,-0.274 0,0 m -2.554,-1.671 c 0,-1.038 0.549,-1.694 1.54,-1.694 0.68,0 1.038,0.191 1.468,0.62 L 1.23,-3.473 c -0.621,-0.62 -1.206,-0.942 -2.268,-0.942 -1.516,0 -2.721,0.799 -2.721,3.102 0,1.958 1.014,3.091 2.566,3.091 1.623,0 2.566,-1.193 2.566,-2.912 l 0,-0.537 -3.927,0 z"
             id="path3236"
             style="fill:#666a6f;fill-opacity:1;fill-rule:nonzero;stroke:none" />
        </g>
        <g
           transform="translate(252.7,38.6159)"
           id="g3238">
          <path
             d="m 0,0 c -0.99,0 -1.826,0.167 -2.542,0.871 l 0.8,0.799 C -1.253,1.169 -0.596,1.038 0,1.038 c 0.74,0 1.325,0.263 1.325,0.836 0,0.405 -0.227,0.668 -0.812,0.716 l -0.966,0.083 c -1.134,0.096 -1.791,0.609 -1.791,1.671 0,1.181 1.015,1.85 2.28,1.85 0.907,0 1.683,-0.191 2.244,-0.681 L 1.516,4.738 C 1.134,5.06 0.597,5.179 0.024,5.179 c -0.728,0 -1.098,-0.322 -1.098,-0.776 0,-0.358 0.191,-0.632 0.836,-0.692 L 0.716,3.628 C 1.85,3.532 2.519,2.995 2.519,1.921 2.519,0.656 1.444,0 0,0"
             id="path3240"
             style="fill:#666a6f;fill-opacity:1;fill-rule:nonzero;stroke:none" />
        </g>
        <g
           transform="translate(225.8528,84.9853)"
           id="g3242">
          <path
             d="m 0,0 19.553,10.296 2.069,1.09 c -0.053,0.028 -0.106,0.058 -0.159,0.085 -0.229,0.118 -0.683,0.344 -1.236,0.591 -0.808,0.361 -1.815,0.761 -2.612,0.916 -0.022,0.002 -0.045,0.009 -0.066,0.013 l 0,-10e-4 c -0.023,0.005 -3.115,0.65 -4.938,0.65 -10.139,0 -18.362,-7.844 -18.362,-17.521 0,-1.357 0.168,-2.676 0.474,-3.943 l -19.422,-14.986 20.612,11.647 0.008,-0.018 c 0.243,-0.51 0.514,-1.022 0.807,-1.502 l -12.856,-10.367 15.073,7.469 10e-4,0 1.723,1.539 10.684,9.544 -12.437,-6.96 c -1.216,2.25 -1.93,4.854 -1.93,7.598 0,8.724 6.998,15.801 15.625,15.801 1.061,0 2.095,-0.109 3.099,-0.311 l 0,-0.001 L 0,0 z"
             id="path3244"
             style="fill:#666a6f;fill-opacity:1;fill-rule:nonzero;stroke:none" />
        </g>
        <g
           transform="translate(248.1311,95.7204)"
           id="g3246">
          <path
             d="M 0,0 -15.217,-12.256 3.264,-2.222 9.84,4.494 0,0 z"
             id="path3248"
             style="fill:#666a6f;fill-opacity:1;fill-rule:nonzero;stroke:none" />
        </g>
        <g
           transform="translate(256.3417,85.1265)"
           id="g3250">
          <path
             d="M 0,0 19.421,15.088 -1.229,3.373 C -1.217,3.345 -1.208,3.319 -1.196,3.291 -1.209,3.317 -1.222,3.345 -1.235,3.37 l 0.006,0.003 c -0.257,0.526 -0.54,1.036 -0.848,1.532 L 10.144,14.951 -4.248,7.719 -4.463,7.612 -6.006,6.269 -16.713,-3.049 -4.195,3.632 c 1.236,-2.261 1.943,-4.863 1.943,-7.633 0,-8.726 -6.995,-15.799 -15.625,-15.799 -1.059,0 -2.092,0.108 -3.092,0.311 l 15.607,11.86 -19.386,-10.566 -2.065,-1.125 c 0.011,-0.007 0.022,-0.013 0.033,-0.018 1.224,-0.65 2.532,-1.17 3.907,-1.541 0.019,-0.004 0.037,-0.009 0.056,-0.014 1.573,-0.42 3.227,-0.651 4.94,-0.651 10.142,0 18.363,7.844 18.363,17.522 0,1.42 -0.182,2.8 -0.516,4.121 C -0.01,0.036 0,0 0,0"
             id="path3252"
             style="fill:#666a6f;fill-opacity:1;fill-rule:nonzero;stroke:none" />
        </g>
        <g
           transform="translate(227.5055,69.8689)"
           id="g3254">
          <path
             d="m 0,0 -2.047,-1.132 -6.734,-6.943 9.895,4.518 0.004,0.004 1.654,1.354 14.06,11.5 L 0,0 z"
             id="path3256"
             style="fill:#666a6f;fill-opacity:1;fill-rule:nonzero;stroke:none" />
        </g>
        <g
           transform="translate(229.9418,60.1183)"
           id="g3258">
          <path
             d="m 0,0 c 0.363,-3.451 0.755,-6.889 1.132,-9.559 -0.252,0.015 -0.447,0.042 -0.657,0.042 -0.223,0 -0.447,-0.027 -0.656,-0.042 -0.238,2.809 -0.518,5.828 -0.713,7.211 -1.621,-2.892 -2.823,-5.128 -3.662,-7.057 l -0.153,0 -0.769,1.579 c -0.895,1.845 -1.873,3.662 -2.823,5.478 -0.308,-2.725 -0.685,-5.492 -0.685,-7.211 -0.182,0.015 -0.335,0.042 -0.489,0.042 -0.182,0 -0.335,-0.027 -0.503,-0.042 0.363,2.25 1.202,8.092 1.341,9.559 l 0.364,0 c 1.118,-2.222 2.459,-4.849 3.955,-7.323 1.327,2.39 2.613,4.822 4.025,7.323 L 0,0 z"
             id="path3260"
             style="fill:#666a6f;fill-opacity:1;fill-rule:nonzero;stroke:none" />
        </g>
        <g
           transform="translate(232.4002,60.1183)"
           id="g3262">
          <path
             d="m 0,0 c 0.196,-0.014 0.405,-0.042 0.615,-0.042 0.196,0 0.391,0.028 0.615,0.042 l 0,-9.559 C 1.006,-9.544 0.811,-9.517 0.615,-9.517 0.405,-9.517 0.196,-9.544 0,-9.559 L 0,0 z"
             id="path3264"
             style="fill:#666a6f;fill-opacity:1;fill-rule:nonzero;stroke:none" />
        </g>
        <g
           transform="translate(243.7614,50.5594)"
           id="g3266">
          <path
             d="m 0,0 -0.42,0 c -0.153,0.196 -0.433,0.531 -0.726,0.853 l -6.037,6.68 -0.14,0 0,-7.533 C -7.462,0.014 -7.588,0.042 -7.714,0.042 -7.854,0.042 -7.98,0.014 -8.105,0 l 0,9.559 0.545,0 6.638,-7.197 0.14,0 0,7.197 c 0.125,-0.014 0.251,-0.042 0.391,-0.042 0.125,0 0.251,0.028 0.391,0.042 L 0,0 z"
             id="path3268"
             style="fill:#666a6f;fill-opacity:1;fill-rule:nonzero;stroke:none" />
        </g>
        <g
           transform="translate(246.695,55.9539)"
           id="g3270">
          <path
             d="M 0,0 2.166,0 C 2.585,0 2.991,0.056 3.41,0.07 3.396,-0.042 3.368,-0.168 3.368,-0.293 c 0,-0.112 0.028,-0.238 0.042,-0.392 -0.419,0.014 -0.825,0.07 -1.244,0.07 l -2.166,0 0,-4.081 c 0.853,-0.027 1.691,0.028 2.53,0.056 0.433,0.014 0.852,0.056 1.285,0.126 -0.014,-0.154 -0.042,-0.279 -0.042,-0.419 0,-0.14 0.028,-0.28 0.042,-0.419 l -5.045,0 0,9.516 4.962,0 C 3.717,4.011 3.689,3.885 3.689,3.745 3.689,3.606 3.717,3.466 3.732,3.326 3.312,3.41 2.893,3.452 2.473,3.48 L 1.076,3.508 0,3.508 0,0 z"
             id="path3272"
             style="fill:#666a6f;fill-opacity:1;fill-rule:nonzero;stroke:none" />
        </g>
        <g
           transform="translate(251.6277,52.4462)"
           id="g3274">
          <path
             d="m 0,0 c 0.545,-0.894 1.174,-1.454 2.264,-1.454 1.132,0 1.943,0.937 1.943,2.041 0,2.599 -4.375,1.453 -4.375,4.612 0,1.803 1.426,2.683 3.103,2.683 0.67,0 1.481,-0.21 1.998,-0.671 C 4.765,6.848 4.667,6.457 4.556,6.065 l -0.14,0 C 4.122,6.82 3.508,7.281 2.683,7.281 1.719,7.281 0.922,6.638 0.922,5.646 c 0,-2.572 4.402,-1.537 4.402,-4.514 0,-1.999 -1.551,-3.186 -3.451,-3.186 -0.685,0 -1.803,0.293 -2.278,0.81 0.139,0.406 0.209,0.825 0.265,1.244 L 0,0 z"
             id="path3276"
             style="fill:#666a6f;fill-opacity:1;fill-rule:nonzero;stroke:none" />
        </g>
      </g>
    </g>
  </g>
</svg>
